{
 "accessors": [
  {
   "bufferView": 2,
   "componentType": 5126,
   "count": 7622,
   "max": [
    42.22530746459961,
    137.11741638183594,
    18.325708389282227
   ],
   "min": [
    -39.96638870239258,
    -10.320945739746094,
    -27.57231903076172
   ],
   "type": "VEC3"
  },
  {
   "bufferView": 2,
   "byteOffset": 91464,
   "componentType": 5126,
   "count": 7622,
   "max": [
    1.0,
    1.0,
    1.0
   ],
   "min": [
    -1.0,
    -1.0,
    -1.0
   ],
   "type": "VEC3"
  },
  {
   "bufferView": 1,
   "componentType": 5126,
   "count": 7622,
   "max": [
    1.4224945306777954,
    0.99330073595047
   ],
   "min": [
    -0.15864664316177368,
    0.01902216672897339
   ],
   "type": "VEC2"
  },
  {
   "bufferView": 0,
   "componentType": 5125,
   "count": 19347,
   "type": "SCALAR"
  },
  {
   "bufferView": 2,
   "byteOffset": 182928,
   "componentType": 5126,
   "count": 28407,
   "max": [
    21.372879028320312,
    128.35128784179688,
    13.960707664489746
   ],
   "min": [
    -18.974327087402344,
    16.460586547851562,
    -14.922722816467285
   ],
   "type": "VEC3"
  },
  {
   "bufferView": 2,
   "byteOffset": 523812,
   "componentType": 5126,
   "count": 28407,
   "max": [
    1.0,
    1.0,
    1.0
   ],
   "min": [
    -1.0,
    -1.0,
    -1.0
   ],
   "type": "VEC3"
  },
  {
   "bufferView": 1,
   "byteOffset": 60976,
   "componentType": 5126,
   "count": 28407,
   "max": [
    32.55388259887695,
    4.693732261657715
   ],
   "min": [
    -29.689802169799805,
    -7.466251373291016
   ],
   "type": "VEC2"
  },
  {
   "bufferView": 0,
   "byteOffset": 77388,
   "componentType": 5125,
   "count": 91377,
   "type": "SCALAR"
  },
  {
   "bufferView": 2,
   "byteOffset": 864696,
   "componentType": 5126,
   "count": 13300,
   "max": [
    20.463714599609375,
    137.75921630859375,
    10.430147171020508
   ],
   "min": [
    -18.065162658691406,
    -4.1860127449035645,
    -15.123303413391113
   ],
   "type": "VEC3"
  },
  {
   "bufferView": 2,
   "byteOffset": 1024296,
   "componentType": 5126,
   "count": 13300,
   "max": [
    1.0,
    1.0,
    1.0
   ],
   "min": [
    -1.0,
    -0.9999744892120361,
    -0.9996723532676697
   ],
   "type": "VEC3"
  },
  {
   "bufferView": 1,
   "byteOffset": 288232,
   "componentType": 5126,
   "count": 13300,
   "max": [
    1.5381003618240356,
    0.8455162644386292
   ],
   "min": [
    0.030616670846939087,
    0.3473361134529114
   ],
   "type": "VEC2"
  },
  {
   "bufferView": 0,
   "byteOffset": 442896,
   "componentType": 5125,
   "count": 19377,
   "type": "SCALAR"
  },
  {
   "bufferView": 2,
   "byteOffset": 1183896,
   "componentType": 5126,
   "count": 1376,
   "max": [
    41.978939056396484,
    105.74252319335938,
    17.948753356933594
   ],
   "min": [
    -39.72002029418945,
    61.355552673339844,
    -4.818533897399902
   ],
   "type": "VEC3"
  },
  {
   "bufferView": 2,
   "byteOffset": 1200408,
   "componentType": 5126,
   "count": 1376,
   "max": [
    1.0,
    1.0,
    1.0
   ],
   "min": [
    -1.0,
    -1.0,
    -1.0
   ],
   "type": "VEC3"
  },
  {
   "bufferView": 1,
   "byteOffset": 394632,
   "componentType": 5126,
   "count": 1376,
   "max": [
    1.0,
    1.0
   ],
   "min": [
    0.0,
    0.0
   ],
   "type": "VEC2"
  },
  {
   "bufferView": 0,
   "byteOffset": 520404,
   "componentType": 5125,
   "count": 3432,
   "type": "SCALAR"
  },
  {
   "bufferView": 2,
   "byteOffset": 1216920,
   "componentType": 5126,
   "count": 5668,
   "max": [
    20.114990234375,
    85.2249755859375,
    7.769164562225342
   ],
   "min": [
    -17.80856704711914,
    44.45794677734375,
    -12.229024887084961
   ],
   "type": "VEC3"
  },
  {
   "bufferView": 2,
   "byteOffset": 1284936,
   "componentType": 5126,
   "count": 5668,
   "max": [
    1.0,
    1.0,
    1.0
   ],
   "min": [
    -1.0,
    -1.0,
    -1.0
   ],
   "type": "VEC3"
  },
  {
   "bufferView": 1,
   "byteOffset": 405640,
   "componentType": 5126,
   "count": 5668,
   "max": [
    1.0782454013824463,
    1.0
   ],
   "min": [
    0.0,
    0.0
   ],
   "type": "VEC2"
  },
  {
   "bufferView": 0,
   "byteOffset": 534132,
   "componentType": 5125,
   "count": 15792,
   "type": "SCALAR"
  },
  {
   "bufferView": 2,
   "byteOffset": 1352952,
   "componentType": 5126,
   "count": 54,
   "max": [
    8.19561767578125,
    85.2249755859375,
    -2.9613687992095947
   ],
   "min": [
    -5.78973388671875,
    57.471675872802734,
    -11.974143028259277
   ],
   "type": "VEC3"
  },
  {
   "bufferView": 2,
   "byteOffset": 1353600,
   "componentType": 5126,
   "count": 54,
   "max": [
    0.9485151171684265,
    0.0700422078371048,
    -0.31550148129463196
   ],
   "min": [
    -0.948514997959137,
    -0.3968411087989807,
    -0.9999997615814209
   ],
   "type": "VEC3"
  },
  {
   "bufferView": 1,
   "byteOffset": 450984,
   "componentType": 5126,
   "count": 54,
   "max": [
    1.0782454013824463,
    1.0
   ],
   "min": [
    0.08544599264860153,
    1.0
   ],
   "type": "VEC2"
  },
  {
   "bufferView": 0,
   "byteOffset": 597300,
   "componentType": 5125,
   "count": 234,
   "type": "SCALAR"
  },
  {
   "bufferView": 2,
   "byteOffset": 1354248,
   "componentType": 5126,
   "count": 3090,
   "max": [
    9.395232200622559,
    84.6922607421875,
    9.44671630859375
   ],
   "min": [
    -7.024198532104492,
    56.76891326904297,
    -10.534537315368652
   ],
   "type": "VEC3"
  },
  {
   "bufferView": 2,
   "byteOffset": 1391328,
   "componentType": 5126,
   "count": 3090,
   "max": [
    1.0,
    0.9999985694885254,
    1.0
   ],
   "min": [
    -1.0,
    -1.0,
    -1.0
   ],
   "type": "VEC3"
  },
  {
   "bufferView": 1,
   "byteOffset": 451416,
   "componentType": 5126,
   "count": 3090,
   "max": [
    1.0,
    1.0
   ],
   "min": [
    0.0,
    0.0
   ],
   "type": "VEC2"
  },
  {
   "bufferView": 0,
   "byteOffset": 598236,
   "componentType": 5125,
   "count": 7128,
   "type": "SCALAR"
  },
  {
   "bufferView": 2,
   "byteOffset": 1428408,
   "componentType": 5126,
   "count": 1922,
   "max": [
    7.987593650817871,
    74.48118591308594,
    2.601367712020874
   ],
   "min": [
    -5.634341239929199,
    61.963478088378906,
    -3.450018882751465
   ],
   "type": "VEC3"
  },
  {
   "bufferView": 2,
   "byteOffset": 1451472,
   "componentType": 5126,
   "count": 1922,
   "max": [
    1.0,
    0.9851385354995728,
    0.9999723434448242
   ],
   "min": [
    -1.0,
    -0.9851413369178772,
    -0.9999724626541138
   ],
   "type": "VEC3"
  },
  {
   "bufferView": 1,
   "byteOffset": 476136,
   "componentType": 5126,
   "count": 1922,
   "max": [
    1.0357142686843872,
    1.0
   ],
   "min": [
    0.012536048889160156,
    0.0
   ],
   "type": "VEC2"
  },
  {
   "bufferView": 0,
   "byteOffset": 626748,
   "componentType": 5125,
   "count": 6006,
   "type": "SCALAR"
  }
 ],
 "asset": {
  "extras": {
   "author": "LocoPixel (https://sketchfab.com/locopixel)",
   "license": "CC-BY-NC-4.0 (http://creativecommons.org/licenses/by-nc/4.0/)",
   "source": "https://sketchfab.com/3d-models/battlestar-galactica-viper-mark-2-1bf9872a1e8d4b39a259e14a7015a0a2",
   "title": "Battlestar Galactica Viper Mark 2"
  },
  "generator": "Sketchfab-16.16.0",
  "version": "2.0"
 },
 "bufferViews": [
  {
   "buffer": 0,
   "byteLength": 650772,
   "name": "floatBufferViews",
   "target": 34963
  },
  {
   "buffer": 0,
   "byteLength": 491512,
   "byteOffset": 650772,
   "byteStride": 8,
   "name": "floatBufferViews",
   "target": 34962
  },
  {
   "buffer": 0,
   "byteLength": 1474536,
   "byteOffset": 1142284,
   "byteStride": 12,
   "name": "floatBufferViews",
   "target": 34962
  }
 ],
 "buffers": [
  {
   "byteLength": 2616820,
   "uri": "scene.bin"
  }
 ],
 "extensionsUsed": [
  "KHR_materials_specular",
  "KHR_materials_emissive_strength"
 ],
 "images": [
  {
   "uri": "textures/hull_color.png"
  },
  {
   "uri": "textures/hull_mr.png"
  },
  {
   "uri": "textures/hull_normal.png"
  }
 ],
 "materials": [
  {
   "doubleSided": true,
   "extensions": {
    "KHR_materials_specular": {
     "specularColorFactor": [
      1.0,
      1.0,
      1.0
     ],
     "specularFactor": 0.0
    }
   },
   "name": "09_-_Default.001",
   "pbrMetallicRoughness": {
    "baseColorFactor": [
     0.48000146286160106,
     0.48000146286160106,
     0.48000146286160106,
     1.0
    ],
    "baseColorTexture": {
     "index": 0
    },
    "metallicFactor": 1.0,
    "roughnessFactor": 1.0,
    "metallicRoughnessTexture": {
     "index": 1
    }
   },
   "normalTexture": {
    "index": 2
   }
  },
  {
   "doubleSided": true,
   "extensions": {
    "KHR_materials_specular": {
     "specularColorFactor": [
      1.0,
      1.0,
      1.0
     ],
     "specularFactor": 0.06552400921602808
    }
   },
   "name": "08_-_Default.001",
   "pbrMetallicRoughness": {
    "baseColorFactor": [
     0.07123686929331594,
     0.07123686929331594,
     0.07123686929331594,
     1.0
    ],
    "metallicFactor": 0.6,
    "roughnessFactor": 0.55
   }
  },
  {
   "doubleSided": true,
   "extensions": {
    "KHR_materials_specular": {
     "specularColorFactor": [
      1.0,
      1.0,
      1.0
     ],
     "specularFactor": 0.6750496763418707
    }
   },
   "name": "escape.001",
   "pbrMetallicRoughness": {
    "baseColorFactor": [
     0.008336179310260754,
     0.008336179310260754,
     0.008336179310260754,
     1.0
    ],
    "metallicFactor": 0.7,
    "roughnessFactor": 0.6
   }
  },
  {
   "doubleSided": true,
   "emissiveFactor": [
    1.0,
    0.0,
    0.0
   ],
   "extensions": {
    "KHR_materials_emissive_strength": {
     "emissiveStrength": 10.0
    }
   },
   "name": "red_light.001",
   "pbrMetallicRoughness": {
    "baseColorFactor": [
     1.0,
     0.0,
     0.0,
     1.0
    ],
    "roughnessFactor": 0.858579
   }
  },
  {
   "doubleSided": true,
   "extensions": {
    "KHR_materials_specular": {
     "specularColorFactor": [
      1.0,
      1.0,
      1.0
     ],
     "specularFactor": 0.8457168631371066
    }
   },
   "name": "Metal_grey.001",
   "pbrMetallicRoughness": {
    "baseColorFactor": [
     0.07429047555192549,
     0.07429047555192549,
     0.07429047555192549,
     1.0
    ],
    "roughnessFactor": 0.5,
    "metallicFactor": 0.75
   }
  },
  {
   "alphaMode": "BLEND",
   "doubleSided": true,
   "extensions": {
    "KHR_materials_specular": {
     "specularColorFactor": [
      1.0,
      1.0,
      1.0
     ],
     "specularFactor": 0.0
    }
   },
   "name": "vidrio.001",
   "pbrMetallicRoughness": {
    "baseColorFactor": [
     0.029304485161181257,
     0.04765635396914355,
     0.053573780633981265,
     0.48000146286160106
    ],
    "roughnessFactor": 0.18133388596993819
   }
  },
  {
   "doubleSided": true,
   "extensions": {
    "KHR_materials_specular": {
     "specularColorFactor": [
      1.0,
      1.0,
      1.0
     ],
     "specularFactor": 0.3032390193951067
    }
   },
   "name": "interior.001",
   "pbrMetallicRoughness": {
    "baseColorFactor": [
     0.00901532111465059,
     0.011023126398852749,
     0.016369178961345196,
     1.0
    ],
    "metallicFactor": 0.3,
    "roughnessFactor": 0.7
   }
  },
  {
   "doubleSided": true,
   "emissiveFactor": [
    1.0,
    1.0,
    1.0
   ],
   "extensions": {
    "KHR_materials_emissive_strength": {
     "emissiveStrength": 10.0
    }
   },
   "name": "light.001",
   "pbrMetallicRoughness": {
    "roughnessFactor": 0.858579
   }
  }
 ],
 "meshes": [
  {
   "name": "Object_0",
   "primitives": [
    {
     "attributes": {
      "NORMAL": 1,
      "POSITION": 0,
      "TEXCOORD_0": 2
     },
     "indices": 3,
     "material": 0,
     "mode": 4
    }
   ]
  },
  {
   "name": "Object_1",
   "primitives": [
    {
     "attributes": {
      "NORMAL": 5,
      "POSITION": 4,
      "TEXCOORD_0": 6
     },
     "indices": 7,
     "material": 1,
     "mode": 4
    }
   ]
  },
  {
   "name": "Object_2",
   "primitives": [
    {
     "attributes": {
      "NORMAL": 9,
      "POSITION": 8,
      "TEXCOORD_0": 10
     },
     "indices": 11,
     "material": 2,
     "mode": 4
    }
   ]
  },
  {
   "name": "Object_3",
   "primitives": [
    {
     "attributes": {
      "NORMAL": 13,
      "POSITION": 12,
      "TEXCOORD_0": 14
     },
     "indices": 15,
     "material": 3,
     "mode": 4
    }
   ]
  },
  {
   "name": "Object_4",
   "primitives": [
    {
     "attributes": {
      "NORMAL": 17,
      "POSITION": 16,
      "TEXCOORD_0": 18
     },
     "indices": 19,
     "material": 4,
     "mode": 4
    }
   ]
  },
  {
   "name": "Object_5",
   "primitives": [
    {
     "attributes": {
      "NORMAL": 21,
      "POSITION": 20,
      "TEXCOORD_0": 22
     },
     "indices": 23,
     "material": 5,
     "mode": 4
    }
   ]
  },
  {
   "name": "Object_6",
   "primitives": [
    {
     "attributes": {
      "NORMAL": 25,
      "POSITION": 24,
      "TEXCOORD_0": 26
     },
     "indices": 27,
     "material": 6,
     "mode": 4
    }
   ]
  },
  {
   "name": "Object_7",
   "primitives": [
    {
     "attributes": {
      "NORMAL": 29,
      "POSITION": 28,
      "TEXCOORD_0": 30
     },
     "indices": 31,
     "material": 7,
     "mode": 4
    }
   ]
  }
 ],
 "nodes": [
  {
   "children": [
    1
   ],
   "matrix": [
    1.0,
    0.0,
    0.0,
    0.0,
    0.0,
    2.220446049250313e-16,
    -1.0,
    0.0,
    0.0,
    1.0,
    2.220446049250313e-16,
    0.0,
    0.0,
    0.0,
    0.0,
    1.0
   ],
   "name": "Sketchfab_model"
  },
  {
   "children": [
    2
   ],
   "name": "root"
  },
  {
   "children": [
    3
   ],
   "matrix": [
    1.0,
    0.0,
    0.0,
    0.0,
    0.0,
    2.220446049250313e-16,
    1.0,
    0.0,
    0.0,
    -1.0,
    2.220446049250313e-16,
    0.0,
    0.0,
    0.0,
    0.0,
    1.0
   ],
   "name": "GLTF_SceneRootNode"
  },
  {
   "children": [
    4,
    5,
    6,
    7,
    8,
    9,
    10,
    11
   ],
   "matrix": [
    -2.9802322387695312e-08,
    2.980232327587373e-08,
    -0.9999999999999991,
    0.0,
    0.9999999999999991,
    -2.9802322387695312e-08,
    -2.980232327587373e-08,
    0.0,
    -2.980232327587373e-08,
    -0.9999999999999991,
    -2.9802322387695312e-08,
    0.0,
    -151.95848083496094,
    19.65027618408203,
    9.040245056152344,
    1.0
   ],
   "name": "Cylinder01_0"
  },
  {
   "mesh": 0,
   "name": "Object_4"
  },
  {
   "mesh": 1,
   "name": "Object_5"
  },
  {
   "mesh": 2,
   "name": "Object_6"
  },
  {
   "mesh": 3,
   "name": "Object_7"
  },
  {
   "mesh": 4,
   "name": "Object_8"
  },
  {
   "mesh": 5,
   "name": "Object_9"
  },
  {
   "mesh": 6,
   "name": "Object_10"
  },
  {
   "mesh": 7,
   "name": "Object_11"
  },
  {
   "name": "centred",
   "translation": [
    88.25,
    -24.25,
    -7.9
   ],
   "children": [
    0
   ]
  },
  {
   "name": "viper",
   "rotation": [
    0,
    0.7071067811865476,
    0,
    0.7071067811865476
   ],
   "scale": [
    7,
    7,
    7
   ],
   "children": [
    12
   ]
  },
  {
   "name": "engine_glow:1",
   "translation": [
    0,
    29.7,
    -512
   ],
   "scale": [
    45,
    45,
    480
   ]
  },
  {
   "name": "engine_glow:1",
   "translation": [
    -89.5,
    -27.8,
    -512
   ],
   "scale": [
    45,
    45,
    480
   ]
  },
  {
   "name": "engine_glow:1",
   "translation": [
    89.5,
    -27.8,
    -512
   ],
   "scale": [
    45,
    45,
    480
   ]
  },
  {
   "name": "gun_muzzle:1",
   "translation": [
    -119.8,
    -73.8,
    140
   ],
   "scale": [
    1,
    1,
    1
   ]
  },
  {
   "name": "gun_muzzle:1",
   "translation": [
    119.8,
    -73.8,
    140
   ],
   "scale": [
    1,
    1,
    1
   ]
  },
  {
   "name": "missile:0",
   "translation": [
    -154,
    -107,
    -233
   ],
   "scale": [
    1,
    1,
    1
   ]
  },
  {
   "name": "missile:0",
   "translation": [
    154,
    -107,
    -233
   ],
   "scale": [
    1,
    1,
    1
   ]
  },
  {
   "name": "eject_point",
   "translation": [
    0,
    82,
    -58
   ],
   "scale": [
    14,
    14,
    14
   ]
  },
  {
   "name": "jump_light",
   "translation": [
    -25,
    -40,
    380
   ],
   "scale": [
    1,
    1,
    1
   ]
  },
  {
   "name": "jump_light",
   "translation": [
    25,
    -40,
    380
   ],
   "scale": [
    1,
    1,
    1
   ]
  },
  {
   "name": "jump_light",
   "translation": [
    -70,
    -20,
    50
   ],
   "scale": [
    1,
    1,
    1
   ]
  },
  {
   "name": "jump_light",
   "translation": [
    70,
    -20,
    50
   ],
   "scale": [
    1,
    1,
    1
   ]
  },
  {
   "name": "jump_light",
   "translation": [
    -275,
    -148,
    -290
   ],
   "scale": [
    1,
    1,
    1
   ]
  },
  {
   "name": "jump_light",
   "translation": [
    275,
    -148,
    -290
   ],
   "scale": [
    1,
    1,
    1
   ]
  }
 ],
 "samplers": [
  {
   "magFilter": 9729,
   "minFilter": 9987,
   "wrapS": 10497,
   "wrapT": 10497
  }
 ],
 "scene": 0,
 "scenes": [
  {
   "name": "Sketchfab_Scene",
   "nodes": [
    13,
    14,
    15,
    16,
    17,
    18,
    19,
    20,
    21,
    22,
    23,
    24,
    25,
    26,
    27
   ]
  }
 ],
 "textures": [
  {
   "source": 0,
   "sampler": 0
  },
  {
   "source": 1
  },
  {
   "source": 2
  }
 ]
}